<svg width="43" height="42" viewBox="0 0 43 42" fill="none" xmlns="http://www.w3.org/2000/svg">
<rect x="0.998962" y="0.5" width="40.9845" height="40.9831" rx="16.5" stroke="#FF0000"/>
<path d="M29.2928 22.0596C29.2928 22.4388 29.1603 22.8054 28.9126 23.0709C28.6707 23.3427 28.3365 23.4944 27.9909 23.4944H22.7835V29.2083C22.7835 29.5876 22.6452 29.9542 22.3975 30.2196C22.1556 30.4851 21.8272 30.6368 21.4816 30.6368C21.136 30.6368 20.8019 30.4851 20.5599 30.2196C20.3122 29.9542 20.174 29.5876 20.174 29.2083V23.4944H14.9665C14.6209 23.4944 14.2868 23.3427 14.0449 23.0709C13.8029 22.8054 13.6647 22.4388 13.6647 22.0596C13.6647 21.6804 13.8029 21.3201 14.0449 21.0483C14.2868 20.7828 14.6209 20.6311 14.9665 20.6311H20.174V14.9172C20.174 14.538 20.3122 14.1714 20.5599 13.9059C20.8019 13.6341 21.136 13.4824 21.4816 13.4824C21.8272 13.4824 22.1556 13.6341 22.3975 13.9059C22.6452 14.1714 22.7835 14.538 22.7835 14.9172V20.6311H27.9909C28.3365 20.6311 28.6707 20.7828 28.9126 21.0483C29.1603 21.3201 29.2928 21.6804 29.2928 22.0596Z" fill="#FF0000"/>
</svg>
