<svg width="23" height="25" viewBox="0 0 23 25" fill="none" xmlns="http://www.w3.org/2000/svg">
<path d="M9.08333 19.7503C9.4038 19.7503 9.71115 19.623 9.93775 19.3964C10.1644 19.1698 10.2917 18.8625 10.2917 18.542V11.292C10.2917 10.9715 10.1644 10.6642 9.93775 10.4376C9.71115 10.211 9.4038 10.0837 9.08333 10.0837C8.76286 10.0837 8.45552 10.211 8.22891 10.4376C8.00231 10.6642 7.875 10.9715 7.875 11.292V18.542C7.875 18.8625 8.00231 19.1698 8.22891 19.3964C8.45552 19.623 8.76286 19.7503 9.08333 19.7503ZM21.1667 5.25033H16.3333V4.04199C16.3333 3.08058 15.9514 2.15855 15.2716 1.47873C14.5918 0.798911 13.6697 0.416992 12.7083 0.416992H10.2917C9.33026 0.416992 8.40822 0.798911 7.7284 1.47873C7.04858 2.15855 6.66667 3.08058 6.66667 4.04199V5.25033H1.83333C1.51286 5.25033 1.20552 5.37763 0.978913 5.60424C0.752306 5.83085 0.625 6.13819 0.625 6.45866C0.625 6.77913 0.752306 7.08647 0.978913 7.31308C1.20552 7.53969 1.51286 7.66699 1.83333 7.66699H3.04167V20.9587C3.04167 21.9201 3.42359 22.8421 4.1034 23.5219C4.78322 24.2017 5.70526 24.5837 6.66667 24.5837H16.3333C17.2947 24.5837 18.2168 24.2017 18.8966 23.5219C19.5764 22.8421 19.9583 21.9201 19.9583 20.9587V7.66699H21.1667C21.4871 7.66699 21.7945 7.53969 22.0211 7.31308C22.2477 7.08647 22.375 6.77913 22.375 6.45866C22.375 6.13819 22.2477 5.83085 22.0211 5.60424C21.7945 5.37763 21.4871 5.25033 21.1667 5.25033ZM9.08333 4.04199C9.08333 3.72152 9.21064 3.41418 9.43725 3.18757C9.66385 2.96097 9.9712 2.83366 10.2917 2.83366H12.7083C13.0288 2.83366 13.3361 2.96097 13.5628 3.18757C13.7894 3.41418 13.9167 3.72152 13.9167 4.04199V5.25033H9.08333V4.04199ZM17.5417 20.9587C17.5417 21.2791 17.4144 21.5865 17.1878 21.8131C16.9611 22.0397 16.6538 22.167 16.3333 22.167H6.66667C6.3462 22.167 6.03885 22.0397 5.81225 21.8131C5.58564 21.5865 5.45833 21.2791 5.45833 20.9587V7.66699H17.5417V20.9587ZM13.9167 19.7503C14.2371 19.7503 14.5445 19.623 14.7711 19.3964C14.9977 19.1698 15.125 18.8625 15.125 18.542V11.292C15.125 10.9715 14.9977 10.6642 14.7711 10.4376C14.5445 10.211 14.2371 10.0837 13.9167 10.0837C13.5962 10.0837 13.2889 10.211 13.0622 10.4376C12.8356 10.6642 12.7083 10.9715 12.7083 11.292V18.542C12.7083 18.8625 12.8356 19.1698 13.0622 19.3964C13.2889 19.623 13.5962 19.7503 13.9167 19.7503Z" fill="white"/>
</svg>
