<svg id="Layer_1" data-name="Layer 1" xmlns="http://www.w3.org/2000/svg" viewBox="0 0 338.13 301.22"><defs><style>.cls-1{fill:#fff;}.cls-2{fill:#eb2329;}</style></defs><title>logo+ae+slg1</title><rect class="cls-1" width="338.13" height="301.22" rx="44.14"/><path class="cls-2" d="M181.51,483.64a10.05,10.05,0,0,0,1.66.13,12,12,0,0,0,1.72-.13c.07.52.14,1,.23,1.38l1.88,8.83c.17.76.47,1.16.93,1.2l-.07.47a13.73,13.73,0,0,0-2.14-.16,20.46,20.46,0,0,0-2.4.16l.07-.47a1.53,1.53,0,0,0,.69-.18.81.81,0,0,0,.23-.65.57.57,0,0,0,0-.14l-.39-2.29h-3.68l-1,2a1.79,1.79,0,0,0-.21.74c0,.33.22.5.66.52l-.07.47a11.76,11.76,0,0,0-1.85-.16,9.53,9.53,0,0,0-1.81.16l.08-.47c.45-.05.92-.56,1.43-1.55l4.36-8.42a1.48,1.48,0,0,0,.22-.62c0-.23-.2-.35-.62-.38Zm1.47,2.55-2,4.13h2.67Z" transform="translate(-128.57 -235.39)"/><path class="cls-2" d="M193,486.31l-1,5.25q2-4.79,4.05-4.79c.77,0,1.15.47,1.15,1.41a22.06,22.06,0,0,1-.39,2.73c-.09.44-.15.82-.21,1.14a15.86,15.86,0,0,0-.24,1.82c0,.31.09.46.29.46a2,2,0,0,0,.88-.36l.17.34a5,5,0,0,1-2.75,1.37q-1,0-1-1.26a20.69,20.69,0,0,1,.37-2.68l.17-.93a15.11,15.11,0,0,0,.29-2c0-.21-.06-.31-.2-.31-.29,0-.78.66-1.48,2a34,34,0,0,0-2,4.87l-2,.24,1.26-7.71a6.22,6.22,0,0,1-1.13.26l.14-.45A15.43,15.43,0,0,0,193,486.31Z" transform="translate(-128.57 -235.39)"/><path class="cls-2" d="M208,483.66l-.51,3.25h1.68l-.13.89h-1.69l-.79,4.95a3.35,3.35,0,0,0,0,.62c0,.62.19.93.56.93s.94-.45,1.76-1.34l.28.25c-1.25,1.65-2.3,2.47-3.16,2.47a1.51,1.51,0,0,1-1.34-.69,2.67,2.67,0,0,1-.4-1.52,8.12,8.12,0,0,1,.1-1.27l.71-4.4h-1.22l.14-.89h1.22l.36-2.32C206.29,484.35,207.12,484,208,483.66Z" transform="translate(-128.57 -235.39)"/><path class="cls-2" d="M214.5,486.59a2.08,2.08,0,0,1,1.75.87,3,3,0,0,1,.61,1.91,6.59,6.59,0,0,1-2.1,5.08,4,4,0,0,1-2.66,1.23,2.16,2.16,0,0,1-1.91-1,3.88,3.88,0,0,1-.55-2.16,6.5,6.5,0,0,1,.88-3.28A5.54,5.54,0,0,1,213,487,3.46,3.46,0,0,1,214.5,486.59Zm-.89,1.1a.57.57,0,0,0-.46.2,2.44,2.44,0,0,0-.37.82,13.26,13.26,0,0,0-.7,4.13c0,1.11.34,1.67,1,1.67a.49.49,0,0,0,.35-.15,5.88,5.88,0,0,0,.69-2.38,16.72,16.72,0,0,0,.31-2.61Q214.45,487.69,213.61,487.69Z" transform="translate(-128.57 -235.39)"/><path class="cls-2" d="M225.62,486.52c-.31,1.75-.56,3.31-.76,4.69s-.3,2.2-.3,2.47c0,.42.14.63.41.63a2,2,0,0,0,.78-.41l.14.34a4.8,4.8,0,0,1-2.39,1.43,1,1,0,0,1-.88-.52,2.06,2.06,0,0,1-.26-1.06,16.52,16.52,0,0,1,.24-2.25,8.64,8.64,0,0,1-1.14,2.36,2.6,2.6,0,0,1-2,1.37,1.54,1.54,0,0,1-1.37-.83,3.18,3.18,0,0,1-.4-1.61,6.23,6.23,0,0,1,1.09-3.54,6.61,6.61,0,0,1,2.81-2.4,4.43,4.43,0,0,1,1.84-.47,4.1,4.1,0,0,1,1.32.26A3.88,3.88,0,0,0,225.62,486.52ZM223.2,488a6,6,0,0,0-.78-.07,1.28,1.28,0,0,0-.79.22c-.47.34-.9,1.39-1.31,3.13a9.64,9.64,0,0,0-.26,2c0,.55.14.83.41.83.53,0,1.11-.91,1.75-2.72A30.3,30.3,0,0,0,223.2,488Zm1.44-2.32h-1.07l-2.16-1.57a1.07,1.07,0,0,1-.54-.82,1,1,0,0,1,.32-.75,1.06,1.06,0,0,1,.75-.32,1.15,1.15,0,0,1,1,.66Z" transform="translate(-128.57 -235.39)"/><path class="cls-2" d="M230.87,486.31l-1,5.25q2-4.79,4-4.79c.77,0,1.15.47,1.15,1.41a22.06,22.06,0,0,1-.39,2.73c-.09.44-.15.82-.21,1.14a15.86,15.86,0,0,0-.24,1.82c0,.31.09.46.29.46a2,2,0,0,0,.88-.36l.17.34a5,5,0,0,1-2.75,1.37q-1,0-1-1.26a20.69,20.69,0,0,1,.37-2.68l.17-.93a15.11,15.11,0,0,0,.29-2c0-.21-.06-.31-.2-.31s-.78.66-1.48,2a32.9,32.9,0,0,0-2,4.87l-2,.24,1.26-7.71a6.41,6.41,0,0,1-1.13.26l.14-.45A15.59,15.59,0,0,0,230.87,486.31Z" transform="translate(-128.57 -235.39)"/><path class="cls-2" d="M237.47,493.65h2.27a7.83,7.83,0,0,1-1.35,3.17,2.67,2.67,0,0,1-1.92,1.31,6,6,0,0,0,1.07-3.52A6.29,6.29,0,0,0,237.47,493.65Z" transform="translate(-128.57 -235.39)"/><path class="cls-2" d="M250.75,483.66l-.51,3.25h1.68l-.12.89h-1.7l-.79,4.95a3.35,3.35,0,0,0,0,.62c0,.62.19.93.56.93s.94-.45,1.76-1.34l.28.25c-1.25,1.65-2.3,2.47-3.16,2.47a1.52,1.52,0,0,1-1.34-.69,2.67,2.67,0,0,1-.4-1.52,8.18,8.18,0,0,1,.11-1.27l.7-4.4h-1.22l.14-.89h1.22l.36-2.32C249,484.35,249.86,484,250.75,483.66Z" transform="translate(-128.57 -235.39)"/><path class="cls-2" d="M256.52,486.31c-.1.43-.19.86-.27,1.3l-.66,3.79a22.24,22.24,0,0,0-.34,2.32c0,.38.12.58.36.58a1.73,1.73,0,0,0,.79-.33l.18.34a5.07,5.07,0,0,1-2.75,1.37c-.65,0-1-.41-1-1.24a29.38,29.38,0,0,1,.41-3.08l.57-3.52a6.5,6.5,0,0,1-1.14.26l.14-.45A15.43,15.43,0,0,0,256.52,486.31Zm-.8-3.54a1,1,0,0,1,.87.43,1.65,1.65,0,0,1,.28,1,1.8,1.8,0,0,1-.38,1.14,1.25,1.25,0,0,1-1.05.55,1.09,1.09,0,0,1-.86-.4,1.47,1.47,0,0,1-.31-.93,2,2,0,0,1,.4-1.17A1.27,1.27,0,0,1,255.72,482.77Z" transform="translate(-128.57 -235.39)"/><path class="cls-2" d="M260.06,492.17a2.93,2.93,0,0,0,0,.36,2.27,2.27,0,0,0,.33,1.28,1.26,1.26,0,0,0,1.13.59c.8,0,1.68-.58,2.63-1.74l.39.21c-1.29,1.88-2.66,2.81-4.1,2.81a2.58,2.58,0,0,1-2.09-1,3.39,3.39,0,0,1-.76-2.23,5.3,5.3,0,0,1,1.21-3.33,7.27,7.27,0,0,1,2.86-2.17,4.55,4.55,0,0,1,1.73-.39,1.85,1.85,0,0,1,1.26.4,1.52,1.52,0,0,1,.5,1.21,3.28,3.28,0,0,1-1.86,2.68A10.47,10.47,0,0,1,260.06,492.17Zm0,4.9a1,1,0,0,1,.76.3,1,1,0,0,1,.31.76,1.46,1.46,0,0,1-.43,1.06,1.4,1.4,0,0,1-1,.44,1.08,1.08,0,0,1-.78-.28,1,1,0,0,1-.31-.77,1.44,1.44,0,0,1,.45-1.05A1.38,1.38,0,0,1,260.05,497.07Zm2.55-14.67h1.51l1.4,3.26h-.85l-1.53-1.52-2.26,1.52h-1Zm-2.47,9.1a4.11,4.11,0,0,0,2-1.13,2.39,2.39,0,0,0,.81-1.58c0-.6-.34-.9-1-.9a.65.65,0,0,0-.46.18,3.51,3.51,0,0,0-.56,1A11.27,11.27,0,0,0,260.13,491.5Z" transform="translate(-128.57 -235.39)"/><path class="cls-2" d="M269.61,486.31l-1,5.25q2-4.79,4-4.79c.77,0,1.15.47,1.15,1.41a22.06,22.06,0,0,1-.39,2.73c-.08.44-.15.82-.2,1.14a14.54,14.54,0,0,0-.25,1.82c0,.31.1.46.29.46a2,2,0,0,0,.88-.36l.17.34a5,5,0,0,1-2.75,1.37q-1,0-1-1.26a20.69,20.69,0,0,1,.37-2.68l.18-.93a17.09,17.09,0,0,0,.29-2c0-.21-.07-.31-.21-.31s-.78.66-1.48,2a33,33,0,0,0-2,4.87l-2,.24,1.26-7.71a6.22,6.22,0,0,1-1.13.26l.14-.45A15.43,15.43,0,0,0,269.61,486.31Z" transform="translate(-128.57 -235.39)"/><path class="cls-2" d="M284.85,482.05c-.12.49-.21.91-.27,1.28l-1.26,8.06c-.22,1.39-.32,2.19-.32,2.4s.11.51.34.51a1.69,1.69,0,0,0,.79-.33l.19.34a5.15,5.15,0,0,1-2.76,1.37c-.66,0-1-.41-1-1.24,0-.25.12-1.15.34-2.72l.06-.36,1.18-7.78a4.68,4.68,0,0,1-1.13.27l.15-.46A15.64,15.64,0,0,0,284.85,482.05Z" transform="translate(-128.57 -235.39)"/><path class="cls-2" d="M290.14,486.59a2.08,2.08,0,0,1,1.75.87,3,3,0,0,1,.61,1.91,6.59,6.59,0,0,1-2.1,5.08,4,4,0,0,1-2.67,1.23,2.15,2.15,0,0,1-1.9-1,3.8,3.8,0,0,1-.55-2.16,6.5,6.5,0,0,1,.88-3.28,5.54,5.54,0,0,1,2.49-2.31A3.46,3.46,0,0,1,290.14,486.59Zm-2.62,10.48a1,1,0,0,1,1.07,1.06,1.51,1.51,0,0,1-.43,1.06,1.43,1.43,0,0,1-1,.44,1.08,1.08,0,0,1-.78-.28,1,1,0,0,1-.31-.77,1.47,1.47,0,0,1,.44-1.05A1.41,1.41,0,0,1,287.52,497.07Zm1.73-9.38a.57.57,0,0,0-.46.2,2.44,2.44,0,0,0-.37.82,13.26,13.26,0,0,0-.7,4.13c0,1.11.34,1.67,1,1.67a.49.49,0,0,0,.35-.15,5.88,5.88,0,0,0,.69-2.38,16.72,16.72,0,0,0,.31-2.61Q290.09,487.69,289.25,487.69Zm2.89-2h1.76a8,8,0,0,1-.84,2c-.5.83-1.05,1.24-1.65,1.24h-.2a4,4,0,0,0,1-2.77C292.16,486,292.15,485.83,292.14,485.67Z" transform="translate(-128.57 -235.39)"/><path class="cls-2" d="M298,486.31c-.11.43-.2.86-.28,1.3l-.66,3.79c-.22,1.31-.34,2.08-.34,2.32s.12.58.36.58a1.73,1.73,0,0,0,.79-.33l.18.34a5.07,5.07,0,0,1-2.75,1.37c-.65,0-1-.41-1-1.24a29.38,29.38,0,0,1,.41-3.08l.57-3.52a6.31,6.31,0,0,1-1.14.26l.14-.45A15.64,15.64,0,0,0,298,486.31Zm-.81-3.54a1,1,0,0,1,.87.43,1.58,1.58,0,0,1,.28,1,1.8,1.8,0,0,1-.38,1.14,1.24,1.24,0,0,1-1,.55,1.09,1.09,0,0,1-.87-.4,1.46,1.46,0,0,1-.3-.93,1.94,1.94,0,0,1,.39-1.17A1.27,1.27,0,0,1,297.22,482.77Z" transform="translate(-128.57 -235.39)"/><path class="cls-2" d="M300.47,493.65h2.27a7.83,7.83,0,0,1-1.35,3.17,2.67,2.67,0,0,1-1.92,1.31,6,6,0,0,0,1.07-3.52A6.29,6.29,0,0,0,300.47,493.65Z" transform="translate(-128.57 -235.39)"/><path class="cls-2" d="M313.41,486.31l-1,5.25q2-4.79,4.05-4.79c.77,0,1.15.47,1.15,1.41a20.89,20.89,0,0,1-.4,2.73c-.08.44-.15.82-.2,1.14a15.86,15.86,0,0,0-.24,1.82c0,.31.09.46.29.46a1.88,1.88,0,0,0,.87-.36l.18.34a5,5,0,0,1-2.75,1.37q-1,0-1-1.26a20.69,20.69,0,0,1,.37-2.68l.17-.93a17.09,17.09,0,0,0,.29-2c0-.21-.07-.31-.2-.31-.29,0-.78.66-1.48,2a32.9,32.9,0,0,0-2,4.87l-2,.24,1.27-7.71a6.41,6.41,0,0,1-1.13.26l.14-.45A15.75,15.75,0,0,0,313.41,486.31Z" transform="translate(-128.57 -235.39)"/><path class="cls-2" d="M325.44,482.11a8,8,0,0,0-.39,1.37,5.86,5.86,0,0,0-1.08-.16,1,1,0,0,0-.87.59,13.49,13.49,0,0,0-.66,2.84l-.8,4.81q2-4.81,4.05-4.82c.77,0,1.16.48,1.16,1.44a25.55,25.55,0,0,1-.4,2.73l-.2,1.14a12.85,12.85,0,0,0-.25,1.82c0,.31.1.46.29.46a2,2,0,0,0,.88-.36l.19.34a5.15,5.15,0,0,1-2.76,1.37q-1,0-1-1.26c0-.31.13-1.2.37-2.68l.17-.93c.19-1.14.29-1.82.29-2s-.07-.31-.2-.31c-.31,0-.82.69-1.53,2.06a22.32,22.32,0,0,0-1.78,4.73l-2.11.3,1.35-8.69a6.82,6.82,0,0,1,.73-2.41,5.18,5.18,0,0,1,1.87-1.63,4.81,4.81,0,0,1,2.35-.73A1.38,1.38,0,0,1,325.44,482.11Z" transform="translate(-128.57 -235.39)"/><path class="cls-2" d="M336,486.52c-.31,1.75-.56,3.31-.76,4.69s-.3,2.2-.3,2.47c0,.42.14.63.41.63a1.92,1.92,0,0,0,.77-.41l.15.34a4.77,4.77,0,0,1-2.4,1.43,1,1,0,0,1-.87-.52,2.06,2.06,0,0,1-.26-1.06,16.52,16.52,0,0,1,.24-2.25,8.64,8.64,0,0,1-1.14,2.36,2.6,2.6,0,0,1-2,1.37,1.54,1.54,0,0,1-1.37-.83,3.08,3.08,0,0,1-.4-1.61,6.23,6.23,0,0,1,1.09-3.54,6.61,6.61,0,0,1,2.81-2.4,4.43,4.43,0,0,1,1.84-.47,4.1,4.1,0,0,1,1.32.26A3.88,3.88,0,0,0,336,486.52ZM333.6,488a6,6,0,0,0-.78-.07,1.28,1.28,0,0,0-.79.22c-.47.34-.9,1.39-1.31,3.13a9.64,9.64,0,0,0-.26,2c0,.55.14.83.41.83.53,0,1.11-.91,1.75-2.72A30.3,30.3,0,0,0,333.6,488Z" transform="translate(-128.57 -235.39)"/><path class="cls-2" d="M341.27,486.31l-1,5.25q2-4.79,4.05-4.79c.77,0,1.15.47,1.15,1.41a22.06,22.06,0,0,1-.39,2.73c-.09.44-.15.82-.21,1.14a15.86,15.86,0,0,0-.24,1.82c0,.31.09.46.29.46a2,2,0,0,0,.88-.36l.17.34a5,5,0,0,1-2.75,1.37q-1,0-1-1.26a20.69,20.69,0,0,1,.37-2.68l.17-.93a15.11,15.11,0,0,0,.29-2c0-.21-.06-.31-.2-.31-.29,0-.78.66-1.48,2a32.9,32.9,0,0,0-2,4.87l-2,.24,1.27-7.71a6.41,6.41,0,0,1-1.13.26l.14-.45A15.75,15.75,0,0,0,341.27,486.31Z" transform="translate(-128.57 -235.39)"/><path class="cls-2" d="M353.3,482.11a8,8,0,0,0-.39,1.37,5.86,5.86,0,0,0-1.08-.16,1,1,0,0,0-.87.59,13.49,13.49,0,0,0-.66,2.84l-.8,4.81q2-4.81,4.05-4.82c.77,0,1.16.48,1.16,1.44a23,23,0,0,1-.4,2.73l-.2,1.14a14.64,14.64,0,0,0-.25,1.82c0,.31.1.46.29.46A1.91,1.91,0,0,0,355,494l.19.34a5.15,5.15,0,0,1-2.76,1.37q-1,0-1-1.26c0-.31.13-1.2.37-2.68l.17-.93c.19-1.14.29-1.82.29-2s-.07-.31-.2-.31c-.31,0-.82.69-1.53,2.06a22.32,22.32,0,0,0-1.78,4.73l-2.11.3,1.36-8.69a6.62,6.62,0,0,1,.73-2.41,5.14,5.14,0,0,1,1.86-1.63,4.84,4.84,0,0,1,2.35-.73A1.33,1.33,0,0,1,353.3,482.11Z" transform="translate(-128.57 -235.39)"/><path class="cls-2" d="M367.65,486.72a17.27,17.27,0,0,0-.48,1.84,5.43,5.43,0,0,0-1.65-.33,1.06,1.06,0,0,0-.68.21,3.75,3.75,0,0,0-.88,1.95,9.8,9.8,0,0,0-.3,2.21c0,1.15.41,1.73,1.22,1.73a4.29,4.29,0,0,0,2.44-1.32l.25.28q-2,2.38-3.78,2.39a2.28,2.28,0,0,1-2-.95,3.56,3.56,0,0,1-.64-2.15A5.77,5.77,0,0,1,363,488.5a5.48,5.48,0,0,1,4-1.86A4.85,4.85,0,0,1,367.65,486.72Z" transform="translate(-128.57 -235.39)"/><path class="cls-2" d="M374.82,482.11a8,8,0,0,0-.39,1.37,6.09,6.09,0,0,0-1.08-.16.93.93,0,0,0-.87.59,13.49,13.49,0,0,0-.66,2.84l-.8,4.81q2-4.81,4.05-4.82c.77,0,1.15.48,1.15,1.44a24.36,24.36,0,0,1-.39,2.73l-.2,1.14a12.85,12.85,0,0,0-.25,1.82c0,.31.1.46.29.46a2,2,0,0,0,.88-.36l.18.34a5.09,5.09,0,0,1-2.76,1.37c-.65,0-1-.42-1-1.26a24.81,24.81,0,0,1,.37-2.68l.17-.93a19.79,19.79,0,0,0,.28-2c0-.21-.06-.31-.2-.31-.3,0-.81.69-1.53,2.06a22.88,22.88,0,0,0-1.77,4.73l-2.11.3,1.35-8.69a6.82,6.82,0,0,1,.73-2.41,5.18,5.18,0,0,1,1.87-1.63,4.81,4.81,0,0,1,2.35-.73A1.38,1.38,0,0,1,374.82,482.11Z" transform="translate(-128.57 -235.39)"/><path class="cls-2" d="M382.4,486.59a2.08,2.08,0,0,1,1.75.87,3.07,3.07,0,0,1,.61,1.91,6.59,6.59,0,0,1-2.1,5.08,4,4,0,0,1-2.67,1.23,2.15,2.15,0,0,1-1.9-1,3.8,3.8,0,0,1-.55-2.16,6.4,6.4,0,0,1,.88-3.28,5.49,5.49,0,0,1,2.49-2.31A3.46,3.46,0,0,1,382.4,486.59Zm-.9,1.1a.56.56,0,0,0-.45.2,2.44,2.44,0,0,0-.37.82,13.26,13.26,0,0,0-.7,4.13c0,1.11.34,1.67,1,1.67a.49.49,0,0,0,.35-.15A5.88,5.88,0,0,0,382,492a16.72,16.72,0,0,0,.31-2.61C382.35,488.25,382.07,487.69,381.5,487.69Zm.22-2h-1.06l2.72-2.82a1.74,1.74,0,0,1,1.17-.64.8.8,0,0,1,.62.3,1,1,0,0,1,.25.65,1.1,1.1,0,0,1-.72,1Z" transform="translate(-128.57 -235.39)"/><path class="cls-2" d="M389.68,486.31l-1,5.25q2-4.79,4.05-4.79c.77,0,1.15.47,1.15,1.41a22.06,22.06,0,0,1-.39,2.73c-.09.44-.15.82-.21,1.14a15.86,15.86,0,0,0-.24,1.82c0,.31.09.46.29.46a2,2,0,0,0,.88-.36l.17.34a5,5,0,0,1-2.75,1.37q-1,0-1-1.26a20.69,20.69,0,0,1,.37-2.68l.17-.93a15.11,15.11,0,0,0,.29-2c0-.21-.06-.31-.2-.31s-.78.66-1.48,2a32.9,32.9,0,0,0-2,4.87l-2,.24,1.27-7.71a6.41,6.41,0,0,1-1.13.26l.14-.45A15.75,15.75,0,0,0,389.68,486.31Z" transform="translate(-128.57 -235.39)"/><path class="cls-2" d="M403.33,486.31c-.17.9-.39,2.31-.67,4.22a17.19,17.19,0,0,1-1.26,5.22,7.41,7.41,0,0,1-2.17,2.39,4.45,4.45,0,0,1-2.55.87,4.38,4.38,0,0,1-1.83-.4,15.18,15.18,0,0,0,.68-1.76,3.94,3.94,0,0,0,2.18.79c1,0,1.84-1.93,2.41-5.79a8.74,8.74,0,0,1-1.18,2.37,2.65,2.65,0,0,1-2.09,1.35,1.55,1.55,0,0,1-1.4-.82,3.05,3.05,0,0,1-.42-1.64,6.53,6.53,0,0,1,1.72-4.3,5.32,5.32,0,0,1,4.06-2.09,5,5,0,0,1,1.49.26Zm-2.56,1.56a3.17,3.17,0,0,0-.79-.07,1.47,1.47,0,0,0-.83.23c-.47.36-.93,1.43-1.36,3.22a8.76,8.76,0,0,0-.28,2.05c0,.55.13.83.4.83.56,0,1.17-.92,1.83-2.75A30.28,30.28,0,0,0,400.77,487.87Z" transform="translate(-128.57 -235.39)"/><path class="cls-2" d="M333.27,272.44a123.16,123.16,0,0,0-28.69-2.91c-.23,0-.45.07-.67.06-7.79-.11-82,15.66-66.51,102.2h19.79s-21.35-60.31,39.66-82.11a46.32,46.32,0,0,1,15.57-2.61h5.79v37.68h-8.75a28.21,28.21,0,0,0-19.08,19h27.83v26.36s12.25,1,17.87-17.7V275.94A3.59,3.59,0,0,0,333.27,272.44Z" transform="translate(-128.57 -235.39)"/><path class="cls-2" d="M343.5,309.47v31.15a30.47,30.47,0,0,1-49.17,29.51H312v-17.3s-26.36.18-28.21,0a30.45,30.45,0,0,1,23.66-36.18V298.53a50.12,50.12,0,1,0,36.06,10.94Z" transform="translate(-128.57 -235.39)"/><path class="cls-2" d="M308.84,369.52" transform="translate(-128.57 -235.39)"/><path class="cls-2" d="M197.14,418.47h8.93L209.44,431H198.12q-7.76,0-12.45,2.74-5.13,3-7.65,10h14.17V433.27h15v40.79h-15V456.52H176.52a36.28,36.28,0,0,0,5.71,17.54l-11.86,7.8q-8.94-13.69-8.94-27.68,0-16.64,10.14-26.77Q180.51,418.47,197.14,418.47Z" transform="translate(-128.57 -235.39)"/><path class="cls-2" d="M254.12,430.85H231.85v8.64h20.33L248.48,452H231.85v9.52H256l-4,12.52H216.91V418.47h33.84Z" transform="translate(-128.57 -235.39)"/><path class="cls-2" d="M319,431.14H304.36c-1.9,0-2.85.63-2.85,1.87a4.22,4.22,0,0,0,1.35,2.53L315,449.16q5.46,6.12,5.46,12.16a11.62,11.62,0,0,1-4.88,10q-3.8,2.78-14.39,2.78H288.4l-3.67-12.82h16.19q2.64,0,2.64-2A3.66,3.66,0,0,0,302.4,457l-13.28-14.84a15.6,15.6,0,0,1-4.24-10.73,13.05,13.05,0,0,1,2.6-8.09,11.25,11.25,0,0,1,6.59-4.14,34.79,34.79,0,0,1,8-.7H315.6Z" transform="translate(-128.57 -235.39)"/><path class="cls-2" d="M326.12,418.47h13.33v13.88h6q8.9,0,12.42,3.73t3.4,12.57v25.41H347.94V450.59c0-2.69-.22-4.42-.66-5.2q-1-1.69-4.54-1.69h-3.29v30.36H326.12Z" transform="translate(-128.57 -235.39)"/><path class="cls-2" d="M386.65,431.91c6.23,0,10.86,1,13.92,3q5.56,3.66,5.56,12.45,0,12.83-7.5,21.83-5,5.94-12,5.93a15.11,15.11,0,0,1-12.09-5.93,32.24,32.24,0,0,1-7.5-21.17q0-9.15,5.38-12.92Q377,431.91,386.65,431.91Zm6,17.25c0-4-2-6-6-6s-6.08,2-6.08,6a25.79,25.79,0,0,0,1.58,8.31q2,5.79,4.5,5.79,1.83,0,3.44-3.37A24.53,24.53,0,0,0,392.62,449.16Z" transform="translate(-128.57 -235.39)"/><path class="cls-2" d="M412.06,432.35h16q9,0,13,1.9,8,3.78,8,14.25a23.1,23.1,0,0,1-7,17q-6.4,6.38-16.74,8.53v13.88H412.06Zm13.33,30.1a14.49,14.49,0,0,0,7.37-4.79,12.56,12.56,0,0,0,2.93-8.21q0-5.74-6.23-5.75h-4.07Z" transform="translate(-128.57 -235.39)"/><rect class="cls-2" x="283.48" y="241.18" width="13.34" height="21.89" rx="2.39"/></svg>