<svg width="42" height="43" viewBox="0 0 42 43" fill="none" xmlns="http://www.w3.org/2000/svg">
<rect x="0.5" y="0.801758" width="40.9845" height="40.9831" rx="16.5" stroke="black"/>
<path d="M28.4006 22.4255C28.4006 22.8048 28.2681 23.1714 28.0204 23.4369C27.7784 23.7086 27.4443 23.8603 27.0987 23.8603H21.8913H19.2818H14.0743C13.7287 23.8603 13.3946 23.7086 13.1527 23.4369C12.9107 23.1714 12.7725 22.8048 12.7725 22.4255C12.7725 22.0463 12.9107 21.686 13.1527 21.4142C13.3946 21.1488 13.7287 20.9971 14.0743 20.9971H19.2818H21.8913H27.0987C27.4443 20.9971 27.7784 21.1488 28.0204 21.4142C28.2681 21.686 28.4006 22.0463 28.4006 22.4255Z" fill="black"/>
</svg>
