<svg width="25" height="25" viewBox="0 0 25 25" fill="none" xmlns="http://www.w3.org/2000/svg">
<path d="M24.2329 16.8256L18.7713 11.376C18.8856 10.8194 18.9423 10.2526 18.9404 9.68436C18.94 8.1264 18.5468 6.59368 17.7973 5.22789C17.0477 3.86209 15.9659 2.7073 14.6519 1.87024C13.3379 1.03319 11.8341 0.540886 10.2795 0.438847C8.7249 0.336808 7.16965 0.628322 5.75752 1.28644C5.5786 1.36817 5.42235 1.49234 5.30232 1.64817C5.1823 1.80399 5.10212 1.98677 5.06876 2.18061C5.03554 2.37199 5.04894 2.56857 5.10784 2.75367C5.16673 2.93877 5.26939 3.10695 5.4071 3.24394L10.6633 8.48811L8.48835 10.6631L3.24418 5.40686C3.10603 5.27129 2.93733 5.17089 2.75228 5.11412C2.56724 5.05734 2.37126 5.04585 2.18085 5.08061C1.98822 5.11275 1.80625 5.19109 1.65052 5.30894C1.49479 5.42679 1.36995 5.58063 1.28668 5.75728C0.626358 7.17406 0.335096 8.73483 0.439992 10.2944C0.544888 11.854 1.04253 13.3617 1.88663 14.6773C2.73073 15.9929 3.89387 17.0736 5.26783 17.8189C6.64179 18.5643 8.18194 18.95 9.74502 18.9402C10.3132 18.942 10.8801 18.8853 11.4367 18.771L16.8863 24.2327C16.9986 24.3459 17.1322 24.4358 17.2795 24.4972C17.4267 24.5585 17.5847 24.5901 17.7442 24.5901C17.9037 24.5901 18.0616 24.5585 18.2089 24.4972C18.3561 24.4358 18.4898 24.3459 18.6021 24.2327C18.7154 24.1204 18.8052 23.9867 18.8666 23.8395C18.9279 23.6922 18.9595 23.5343 18.9595 23.3748C18.9595 23.2153 18.9279 23.0573 18.8666 22.9101C18.8052 22.7628 18.7154 22.6292 18.6021 22.5169L12.6813 16.596C12.5333 16.4491 12.3498 16.3429 12.1487 16.2878C11.9475 16.2328 11.7355 16.2307 11.5333 16.2819C10.9499 16.4381 10.349 16.5193 9.74502 16.5235C8.84124 16.5315 7.94482 16.3606 7.10739 16.0206C6.26997 15.6806 5.50808 15.1783 4.86563 14.5426C4.22318 13.9069 3.71286 13.1503 3.36407 12.3165C3.01528 11.4827 2.83491 10.5882 2.83335 9.68436C2.83178 9.27959 2.86412 8.8754 2.93001 8.47603L7.66668 13.2248C7.77901 13.338 7.91265 13.4279 8.0599 13.4893C8.20715 13.5506 8.36508 13.5822 8.5246 13.5822C8.68411 13.5822 8.84205 13.5506 8.9893 13.4893C9.13654 13.4279 9.27018 13.338 9.38252 13.2248L13.225 9.34603C13.4428 9.12071 13.5645 8.8196 13.5645 8.50624C13.5645 8.19287 13.4428 7.89176 13.225 7.66644L8.5246 2.92978C8.92405 2.86454 9.32819 2.83221 9.73293 2.83311C11.5479 2.83631 13.2874 3.55955 14.5697 4.84406C15.8519 6.12858 16.5721 7.86939 16.5721 9.68436C16.5679 10.2883 16.4867 10.8893 16.3304 11.4727C16.2793 11.6749 16.2813 11.8869 16.3364 12.088C16.3914 12.2892 16.4976 12.4727 16.6446 12.6206L22.5654 18.5414C22.793 18.769 23.1016 18.8968 23.4233 18.8968C23.7451 18.8968 24.0537 18.769 24.2813 18.5414C24.5088 18.3139 24.6366 18.0053 24.6366 17.6835C24.6366 17.3617 24.5088 17.0531 24.2813 16.8256H24.2329Z" fill="white"/>
</svg>
